<svg width="474" height="352" viewBox="0 0 474 352" fill="none" xmlns="http://www.w3.org/2000/svg">
<path d="M258.252 135.967L269.875 139.683V282.568" stroke="white"/>
<path d="M200.007 113L227.74 122.177V283.344" stroke="white"/>
<path d="M200.137 112.5V350.827" stroke="white"/>
<path d="M233.256 295.5V347.209L200.01 351" stroke="white"/>
<path d="M382.471 112.696V135.191" stroke="white"/>
<path d="M389.008 116.574V138.293" stroke="white"/>
<path d="M394.818 119.678V140.621" stroke="white"/>
<path d="M400.631 122.78V143.723" stroke="white"/>
<path d="M406.443 126.312V146.826" stroke="white"/>
<path d="M411.529 129V149.153" stroke="white"/>
<path d="M417.342 132.088V152.255" stroke="white"/>
<path d="M422.424 135.191V154.583" stroke="white"/>
<path d="M427.51 138.293V156.909" stroke="white"/>
<path d="M431.867 140.621V159.237" stroke="white"/>
<path d="M436.225 142.947V161.078" stroke="white"/>
<path d="M440.584 145.375V163.312" stroke="white"/>
<path d="M444.941 147.812V165.442" stroke="white"/>
<path d="M449.301 150.219V167.5" stroke="white"/>
<path d="M452.932 152.256V169.321" stroke="white"/>
<path d="M457.293 154.582V171.359" stroke="white"/>
<path d="M232.1 115.799V28.9238" stroke="white"/>
<path d="M218.297 111.146V21.168" stroke="white"/>
<path d="M200.863 104.164V11.084" stroke="white"/>
<path d="M165.824 108.5V18" stroke="white"/>
<path d="M151.777 118V32.5" stroke="white"/>
<path d="M138.666 127V46" stroke="white"/>
<path d="M125.555 136V59.5" stroke="white"/>
<path d="M114.316 144V71" stroke="white"/>
<path d="M104.014 151V81.5" stroke="white"/>
<path d="M93.7168 158V92" stroke="white"/>
<path d="M84.3496 164.5V102" stroke="white"/>
<path d="M75.9199 170.375V110.5" stroke="white"/>
<path d="M68.4277 175.5V118" stroke="white"/>
<path d="M60.9355 181V126" stroke="white"/>
<path d="M53.4453 186V133.5" stroke="white"/>
<path d="M46.8887 190.5V140.5" stroke="white"/>
<path d="M40.334 195V147" stroke="white"/>
<path d="M33.7773 199.5V154" stroke="white"/>
<path d="M28.1582 203.5V159.5" stroke="white"/>
<path d="M23.4746 206.5V164.5" stroke="white"/>
<path d="M18.7949 210V169" stroke="white"/>
<path d="M11.3027 215V177" stroke="white"/>
<path d="M15.0469 212.5V173" stroke="white"/>
<path d="M7.55469 218V181" stroke="white"/>
<path d="M4.74414 325V183.5" stroke="white"/>
<path d="M182.214 45L293.658 98" stroke="white"/>
<path d="M181.975 53.7451L293.844 104.939" stroke="white"/>
<path d="M181.975 62.2773L293.844 111.92" stroke="white"/>
<path d="M293.844 118.902L181.975 70.8105" stroke="white"/>
<path d="M181.975 80.1182L293.844 125.107" stroke="white"/>
<path d="M181.975 88.6504L293.844 132.088" stroke="white"/>
<path d="M181.975 97.1836L293.844 139.07" stroke="white"/>
<path d="M232.102 123.556L258.072 133" stroke="white"/>
<path d="M232.102 131.312L258.072 140.5" stroke="white"/>
<path d="M231.849 139.5L258.254 148.377" stroke="white"/>
<path d="M381.745 255.42L388.283 256.172V276.363L381.745 276.003V255.42Z" stroke="white"/>
<path d="M351.237 251.541L367.219 253.483V275.587L351.237 274.659V251.541Z" stroke="white"/>
<path d="M334.529 249.99L342.52 251.002V274.036L334.529 273.567V249.99Z" stroke="white"/>
<path d="M455.839 264.728L463.83 265.683V281.017L455.839 280.568V264.728Z" stroke="white"/>
<path d="M447.847 263.176L452.205 263.677V280.241L447.847 280.023V263.176Z" stroke="white"/>
<path d="M433.321 261.625L437.68 262.163V279.465L433.321 279.188V261.625Z" stroke="white"/>
<path d="M418.063 278.149V260.074L428.232 261.177V278.69L418.063 278.149Z" stroke="white"/>
<path d="M394.819 256.971L407.168 258.432V277.914L394.819 277.21V256.971Z" stroke="white"/>
<path d="M381.745 170.096L388.283 172.474V192.59L381.745 190.716V170.096Z" stroke="white"/>
<path d="M351.237 158.461L367.219 164.354V186.385L351.237 181.57V158.461Z" stroke="white"/>
<path d="M334.525 151.479L343.242 154.77V178.628L334.525 175.848V151.479Z" stroke="white"/>
<path d="M334.525 225.055V201.123L351.232 205.412V228.271L334.525 225.055Z" stroke="white"/>
<path d="M359.228 207.328L367.219 209.242V231.374L359.228 229.911V207.328Z" stroke="white"/>
<path d="M381.745 212.758L388.283 214.355V235.252L381.745 234.075V212.758Z" stroke="white"/>
<path d="M394.819 215.86L407.168 218.835V238.355L394.819 236.132V215.86Z" stroke="white"/>
<path d="M418.065 222.066L423.15 223.288V241.458L418.065 240.531V222.066Z" stroke="white"/>
<path d="M428.963 224.393L437.68 226.694V244.56L428.963 242.85V224.393Z" stroke="white"/>
<path d="M447.847 229.047L452.205 230.071V246.887L447.847 246.119V229.047Z" stroke="white"/>
<path d="M455.839 231.373L463.83 233.3V249.213L455.839 247.693V231.373Z" stroke="white"/>
<path d="M321.283 129.5L304.74 136.083V284.119" stroke="white"/>
<path d="M453.658 172.423L293.846 96.4072" stroke="white"/>
<path d="M440.584 177.077L435.071 178" stroke="white"/>
<path fill-rule="evenodd" clip-rule="evenodd" d="M445.411 174.981L453.766 172.91L453.803 172L444.475 174.187V182.507H445.411V174.981Z" fill="white"/>
<path fill-rule="evenodd" clip-rule="evenodd" d="M448.313 176.292L460.355 173.5L460.256 172.512L447.377 175.485V183.283H448.313V176.292Z" fill="white"/>
<path d="M440.584 180.179V175.525L432.73 177" stroke="white"/>
<path d="M460.197 156.268L182.298 1L1.99618 186.5V191.11L1.46934 324.5" stroke="white"/>
<path fill-rule="evenodd" clip-rule="evenodd" d="M293.377 90.9756V283.344H294.314V92.5314L460.664 173.628V155.828H459.728V172.072L293.377 90.9756Z" fill="white"/>
<path d="M232.1 282.61V115.828L182.128 97.1836L7.55353 217.524V325" stroke="white"/>
<path d="M181.977 1V97.183" stroke="white"/>
<path d="M472.547 289.162V295.095L245.177 295.755V282.568" stroke="white"/>
<path d="M473 289L244.758 282.568L227.016 283.245V295.417L244.758 295.755" stroke="white"/>
<path d="M469.643 192.59V288.773" stroke="white"/>
<path d="M469.643 192.785L321.453 129.761V284.119" stroke="white"/>
<path d="M460.198 200.348L463.83 201.66V216.637L460.198 215.567V200.348Z" stroke="white"/>
<path d="M447.853 194.917L455.844 198.102V214.309L447.853 211.706V194.917Z" stroke="white"/>
<path d="M428.963 187.937L437.68 191.356V208.88L428.963 206.058V187.937Z" stroke="white"/>
<path d="M418.065 184.059L423.15 186.012V204.226L418.065 202.657V184.059Z" stroke="white"/>
<path d="M394.819 174.75L407.168 179.303V198.796L394.819 195.021V174.75Z" stroke="white"/>
<path d="M181.978 11.084L460.197 160.013" stroke="white"/>
<path d="M181.978 19.6162L460.197 164.666" stroke="white"/>
<path d="M181.978 28.1484L460.197 168.545" stroke="white"/>
<path d="M281.495 141.396L293.844 146.051" stroke="white"/>
<path d="M181.975 36.6807L293.844 91.7532" stroke="white"/>
<path d="M281.495 148.377L293.844 153.031" stroke="white"/>
<path d="M293.844 159.237L281.495 155.358" stroke="white"/>
<path d="M293.844 166.218L281.495 162.34" stroke="white"/>
<path d="M293.844 173.198L281.495 170.096" stroke="white"/>
<path d="M293.844 180.179L281.495 176.301" stroke="white"/>
<path d="M293.844 186.385L281.495 183.282" stroke="white"/>
<path d="M293.844 193.366L281.495 190.264" stroke="white"/>
<path d="M293.844 200.347L281.495 197.244" stroke="white"/>
<path d="M293.844 206.553L281.495 204.226" stroke="white"/>
<path d="M293.844 214.309L281.495 211.982" stroke="white"/>
<path d="M293.844 220.515L281.495 218.188" stroke="white"/>
<path d="M293.844 227.495L281.495 225.168" stroke="white"/>
<path d="M293.844 234.477L281.495 232.926" stroke="white"/>
<path d="M293.844 241.458L281.495 239.906" stroke="white"/>
<path d="M293.844 247.663L281.495 246.111" stroke="white"/>
<path d="M293.844 254.644L281.495 253.868" stroke="white"/>
<path d="M293.844 261.625L281.495 260.85" stroke="white"/>
<path d="M293.844 268.606L281.495 267.83" stroke="white"/>
<path d="M293.844 277.138L281.495 276.362" stroke="white"/>
<path d="M258.254 155.358L232.103 147.602" stroke="white"/>
<path d="M258.254 163.115L232.103 155.358" stroke="white"/>
<path d="M258.254 170.096L232.103 163.115" stroke="white"/>
<path d="M258.254 177.853L232.103 170.872" stroke="white"/>
<path d="M258.254 184.833L232.103 178.628" stroke="white"/>
<path d="M258.254 192.59L232.103 186.385" stroke="white"/>
<path d="M258.254 199.571L232.103 194.142" stroke="white"/>
<path d="M258.254 207.328L232.103 201.898" stroke="white"/>
<path d="M258.254 214.309L232.103 209.655" stroke="white"/>
<path d="M258.254 222.066L232.103 217.412" stroke="white"/>
<path d="M258.254 229.046L232.103 225.168" stroke="white"/>
<path d="M258.254 236.804L232.103 232.926" stroke="white"/>
<path d="M258.254 243.784L232.103 240.682" stroke="white"/>
<path d="M258.254 251.542L232.103 249.215" stroke="white"/>
<path d="M258.254 258.522L232.103 256.971" stroke="white"/>
<path d="M258.254 267.055L232.103 264.728" stroke="white"/>
<path d="M258.254 275.586L232.103 274.035" stroke="white"/>
<path d="M245.178 35.9053V282.568" stroke="white"/>
<path d="M258.254 43.6619L258.254 283.344" stroke="white"/>
<path d="M269.875 50.6426V130.537" stroke="white"/>
<path d="M281.498 56.0723V283.343" stroke="white"/>
<path d="M293.844 63.0537V91.7535" stroke="white"/>
<path d="M301.84 67.707V95.6311" stroke="white"/>
<path d="M312.004 73.5V100.286" stroke="white"/>
<path d="M321.451 78.5664V104.939" stroke="white"/>
<path d="M330.164 83.6094V109.594" stroke="white"/>
<path d="M338.885 88.6504V113.472" stroke="white"/>
<path d="M346.881 93.3047V117.35" stroke="white"/>
<path d="M354.141 97.1836V121.229" stroke="white"/>
<path d="M362.131 101.391V125.107" stroke="white"/>
<path d="M368.666 105.109V128.21" stroke="white"/>
<path d="M375.932 108.818V132.088" stroke="white"/>
<path fill-rule="evenodd" clip-rule="evenodd" d="M330.65 295.5H329.714V342.958L322.144 343.883V295.5H321.208L321.285 345L330.65 343.867V295.5Z" fill="white"/>
<path fill-rule="evenodd" clip-rule="evenodd" d="M316.135 343V296H315.198V343.719L321.285 345L321.428 344.012L316.135 343Z" fill="white"/>
<path fill-rule="evenodd" clip-rule="evenodd" d="M379.272 295.501L379.349 338.5L386.746 337.917V295.5H385.81V336.993L380.285 337.459L380.208 295.499L379.272 295.501Z" fill="white"/>
<path fill-rule="evenodd" clip-rule="evenodd" d="M374.197 336.34V295.5H373.261V337.166L379.348 338.5L379.904 337.509L374.197 336.34Z" fill="white"/>
<path fill-rule="evenodd" clip-rule="evenodd" d="M426.674 295.5L426.641 333.5L432.695 332.957V295.5H431.759V332.044L427.578 332.453L427.61 295.501L426.674 295.5Z" fill="white"/>
<path fill-rule="evenodd" clip-rule="evenodd" d="M421.96 331.11V295.5H421.024V331.89L426.643 333.5L427.225 332.515L421.96 331.11Z" fill="white"/>
<path fill-rule="evenodd" clip-rule="evenodd" d="M470.695 295H469.759V328.075L466.568 328.461V295H465.631V329.581L470.695 328.968V295ZM239.76 295.675H238.824V346.981L233.327 346.523L233.254 347.52L239.76 348.062V295.675Z" fill="white"/>
<path fill-rule="evenodd" clip-rule="evenodd" d="M460.474 327.436V295.08H459.537V328.253L465.692 329.591L465.879 328.611L460.474 327.436Z" fill="white"/>
<path d="M165.824 136.5L147.094 147.266V173.5L165.824 164.5V136.5Z" stroke="white"/>
<path d="M1 324.5L200.476 351" stroke="white"/>
<path d="M182.213 11L1.93555 190" stroke="white"/>
<path d="M182.213 19.5L1.93555 193.5" stroke="white"/>
<path d="M182.213 28L1.93555 197" stroke="white"/>
<path d="M182.213 36.5L1.93555 200" stroke="white"/>
<path d="M182.213 44.5L1.93555 203.5" stroke="white"/>
<path d="M182.213 53.5L1.93555 206.5" stroke="white"/>
<path d="M182.213 62L1.93555 209.5" stroke="white"/>
<path d="M182.213 71L1.93555 212.5" stroke="white"/>
<path d="M182.213 80L1.93555 215.5" stroke="white"/>
<path d="M182.213 88.5L1.93555 218.5" stroke="white"/>
<path d="M7.55459 217.5L1.93555 221.5" stroke="white"/>
<path d="M7.55459 221L1.93555 224.5" stroke="white"/>
<path d="M7.55459 224.5L1.93555 227.5" stroke="white"/>
<path d="M7.55459 228L1.93555 230.5" stroke="white"/>
<path d="M7.55459 231L1.93555 233.5" stroke="white"/>
<path d="M7.55459 234.5L1.93555 236.5" stroke="white"/>
<path d="M7.55459 237.5L1.93555 239.5" stroke="white"/>
<path d="M7.55459 240.5L1.93555 242.5" stroke="white"/>
<path d="M7.55459 244L1.93555 245.5" stroke="white"/>
<path d="M7.55459 247L1.93555 248.5" stroke="white"/>
<path d="M7.55459 250L1.93555 251.5" stroke="white"/>
<path d="M7.55459 253.5L1.93555 254.5" stroke="white"/>
<path d="M7.55459 256.5L1.93555 257.5" stroke="white"/>
<path d="M7.55459 259.5L1.93555 260.5" stroke="white"/>
<path d="M7.55459 263L1.93555 263.5" stroke="white"/>
<path d="M7.55459 266L1.93555 266.5" stroke="white"/>
<path d="M7.55459 269L1.93555 269.5" stroke="white"/>
<path d="M7.55459 272.5H1.93555" stroke="white"/>
<path d="M7.55459 275.5H1.93555" stroke="white"/>
<path d="M7.55459 278.5H1.93555" stroke="white"/>
<path d="M7.55459 281.5H1.93555" stroke="white"/>
<path d="M7.55459 284.5H1.93555" stroke="white"/>
<path d="M7.55459 287.5H1.93555" stroke="white"/>
<path d="M7.55459 290.5H1.93555" stroke="white"/>
<path d="M7.55459 293.5H1.93555" stroke="white"/>
<path d="M7.55459 296.5H1.93555" stroke="white"/>
<path d="M7.55459 299.5H1.93555" stroke="white"/>
<path d="M7.55459 302.5H1.93555" stroke="white"/>
<path d="M7.55459 305.5H1.93555" stroke="white"/>
<path d="M7.55459 309L1.93555 308.5" stroke="white"/>
<path d="M7.5541 312.5L1.4668 312" stroke="white"/>
<path d="M7.55459 315.5L1.93555 315" stroke="white"/>
<path d="M7.5541 318.5L1.4668 318" stroke="white"/>
<path d="M7.55459 322L1.93555 321.5" stroke="white"/>
<path d="M165.824 192.266L147.094 199.578V226.25L165.824 220.766V192.266Z" stroke="white"/>
<path d="M165.824 249.625L147.094 253.266V278.094L165.824 276.078V249.625Z" stroke="white"/>
<path d="M165.824 304.656L147.094 304.828V331.328L165.824 332.875V304.656Z" stroke="white"/>
<path d="M131.174 156.5L114.316 166.156V189.5L131.174 181.281V156.5Z" stroke="white"/>
<path d="M131.174 205.688L114.316 212.266V235.672L131.174 230.828V205.688Z" stroke="white"/>
<path d="M131.174 256.312L114.316 259.5V281.578L131.174 279.797V256.312Z" stroke="white"/>
<path d="M131.174 305.062L114.316 305.266V328.5L131.174 329.922V305.062Z" stroke="white"/>
<path d="M104.017 172.078L89.0332 180.672V201.828L104.017 194.5V172.078Z" stroke="white"/>
<path d="M80.6023 185.5L68.4277 192.5V211.844L80.6023 205.906V185.5Z" stroke="white"/>
<path d="M60.9373 196.844L51.5723 202.203V220.078L60.9373 215.5V196.844Z" stroke="white"/>
<path d="M43.1424 207.047L33.7773 212.445V228.73L43.1424 224.125V207.047Z" stroke="white"/>
<path d="M21.6035 219.453L28.1591 215.672V231.457L21.6035 234.656V219.453Z" stroke="white"/>
<path d="M16.9218 222.117L11.3027 225.383V239.668L16.9218 236.941V222.117Z" stroke="white"/>
<path d="M16.9218 250L11.3027 252.219V265.562L16.9218 263.906V250Z" stroke="white"/>
<path d="M16.9218 278.375L11.3027 279.5V292.609L16.9218 292V278.375Z" stroke="white"/>
<path d="M16.9218 306.391L11.3027 306.438V319.828L16.9218 320.266V306.391Z" stroke="white"/>
<path d="M28.1591 306.234L21.6035 306.328V320.656L28.1591 321.25V306.234Z" stroke="white"/>
<path d="M43.1424 306.094L33.7773 306.203V321.719L43.1424 322.5V306.094Z" stroke="white"/>
<path d="M60.9373 305.891L51.5723 306V323.219L60.9373 324V305.891Z" stroke="white"/>
<path d="M80.6023 305.656L68.4277 305.797V324.609L80.6023 325.688V305.656Z" stroke="white"/>
<path d="M104.017 305.375L89.0332 305.5V326.359L104.017 327.641V305.375Z" stroke="white"/>
<path d="M104.017 261.578L89.0332 264.5V284.297L104.017 282.703V261.578Z" stroke="white"/>
<path d="M80.6023 266.062L68.4277 268.422V286.5L80.6023 285.203V266.062Z" stroke="white"/>
<path d="M60.9373 269.844L51.5723 271.688V288.297L60.9373 287.312V269.844Z" stroke="white"/>
<path d="M43.1424 273.312L33.7773 275.109V290.219L43.1424 289.203V273.312Z" stroke="white"/>
<path d="M28.1591 276.191L21.6035 277.5V291.547L28.1591 290.812V276.191Z" stroke="white"/>
<path d="M28.1591 245.672L21.6035 248.297V262.578L28.1591 260.641V245.672Z" stroke="white"/>
<path d="M43.1424 239.891L33.7773 243.5V259L43.1424 256.312V239.891Z" stroke="white"/>
<path d="M60.9373 233L51.5723 236.594V253.891L60.9373 251.156V233Z" stroke="white"/>
<path d="M80.6023 225.344L68.4277 230.078V249L80.6023 245.5V225.344Z" stroke="white"/>
<path d="M104.017 216.25L89.0332 222.078V243L104.017 238.672V216.25Z" stroke="white"/>
</svg>
