<svg width="68" height="71" viewBox="0 0 68 71" fill="none" xmlns="http://www.w3.org/2000/svg">
<path d="M38.0005 47.5L38.1946 47.0391L38.1862 47.0358L38.0005 47.5ZM34.5023 48.5L34.0551 48.2763H34.0551L34.5023 48.5ZM35.5005 53L35.1466 53.3532C35.1901 53.3968 35.2412 53.4319 35.2974 53.4569L35.5005 53ZM44.5007 57L44.9378 56.7572C44.8851 56.6623 44.803 56.5871 44.7038 56.5431L44.5007 57ZM49.5007 63L49.2435 63.4287L49.5007 63ZM58.5007 64L58.7243 63.5528C58.6433 63.5122 58.5527 63.4945 58.4624 63.5015L58.5007 64ZM62.0017 52.5L62.4017 52.2C62.3956 52.1918 62.3893 52.1839 62.3827 52.1762L62.0017 52.5ZM52.8148 51.0358C52.4258 51.1914 51.7586 51.4062 51.05 51.5328C50.3255 51.6624 49.6362 51.6849 49.1586 51.5257L48.8424 52.4744C49.5648 52.7152 50.4589 52.6544 51.226 52.5172C52.0091 52.3772 52.7419 52.142 53.1862 51.9643L52.8148 51.0358ZM49.1586 51.5257C47.9824 51.1336 41.3759 48.3787 38.1945 47.0392L37.8065 47.9609C40.9585 49.288 47.6186 52.0664 48.8424 52.4744L49.1586 51.5257ZM38.1862 47.0358C37.7098 46.8452 36.9469 46.6736 36.1712 46.7797C35.3732 46.8888 34.5439 47.299 34.0551 48.2763L34.9495 48.7237C35.2608 48.1011 35.764 47.8447 36.3067 47.7704C36.8717 47.6932 37.4579 47.8215 37.8148 47.9643L38.1862 47.0358ZM34.0551 48.2763C33.4957 49.3947 33.4858 50.407 33.7776 51.283C34.0628 52.1392 34.6238 52.8295 35.1466 53.3532L35.8544 52.6467C35.379 52.1705 34.9408 51.6108 34.7263 50.967C34.5185 50.3429 34.5085 49.6052 34.9495 48.7237L34.0551 48.2763ZM35.2974 53.4569L44.2977 57.4569L44.7038 56.5431L35.7036 52.5431L35.2974 53.4569ZM44.0637 57.2428C44.4911 58.0122 45.2546 59.2334 46.1672 60.4177C47.0712 61.5907 48.1597 62.7784 49.2435 63.4287L49.758 62.5712C48.8418 62.0215 47.847 60.9592 46.9593 59.8073C46.0802 58.6665 45.3437 57.4877 44.9378 56.7572L44.0637 57.2428ZM49.2435 63.4287C50.8462 64.3904 52.6507 64.6905 54.2994 64.7375C55.9385 64.7843 57.4909 64.5791 58.5391 64.4985L58.4624 63.5015C57.3439 63.5875 55.8968 63.7827 54.3279 63.7379C52.7685 63.6934 51.1563 63.4102 49.758 62.5712L49.2435 63.4287ZM58.2771 64.4472L62.2771 66.4472L62.7243 65.5528L58.7243 63.5528L58.2771 64.4472ZM53.1208 42.8238L61.6208 52.8238L62.3827 52.1762L53.8827 42.1762L53.1208 42.8238ZM61.6018 52.8C62.1104 53.4781 63.4518 55.0675 64.7246 55.916L65.2793 55.084C64.1521 54.3325 62.8932 52.8552 62.4017 52.2L61.6018 52.8ZM64.7246 55.916C65.2882 56.2918 65.7984 56.6594 66.1798 56.9069C66.5827 57.1684 66.9644 57.381 67.3807 57.4851L67.6232 56.5149C67.3728 56.4523 67.1045 56.3149 66.7241 56.0681C66.3222 55.8073 65.9157 55.5082 65.2793 55.084L64.7246 55.916Z" fill="#C09A5D"/>
<path d="M10.002 26H45.002" stroke="#C09A5D" stroke-linejoin="round"/>
<path d="M28.002 19L45.002 19" stroke="#C09A5D" stroke-linejoin="round"/>
<path d="M10.002 33H45.002" stroke="#C09A5D" stroke-linejoin="round"/>
<path d="M10.002 40H25.002" stroke="#C09A5D" stroke-linejoin="round"/>
<path d="M33.5017 57.5L33.0545 57.2764C33.0346 57.3161 33.0202 57.3584 33.0114 57.4019L33.5017 57.5ZM38.002 60L38.3555 60.3536C38.4034 60.3057 38.441 60.2486 38.4662 60.1857L38.002 60ZM35.0545 53.2764L33.0545 57.2764L33.9489 57.7236L35.9489 53.7236L35.0545 53.2764ZM33.0114 57.4019C32.9159 57.8795 32.8848 58.6205 33.1142 59.3186C33.3513 60.04 33.8788 60.7347 34.8805 60.9851L35.123 60.0149C34.5247 59.8653 34.2188 59.4767 34.0642 59.0064C33.902 58.5128 33.9209 57.9538 33.992 57.5981L33.0114 57.4019ZM34.8805 60.9851C36.6406 61.4251 37.8906 60.8184 38.3555 60.3536L37.6484 59.6464C37.4465 59.8483 36.5629 60.3749 35.123 60.0149L34.8805 60.9851ZM38.4662 60.1857L40.4662 55.1857L39.5377 54.8143L37.5377 59.8143L38.4662 60.1857Z" fill="#C09A5D"/>
<path d="M43.002 62L43.418 62.2773C43.4337 62.2538 43.4474 62.2289 43.4589 62.2031L43.002 62ZM37.502 60C37.502 60.2787 37.5372 60.9719 37.7631 61.6704C37.9851 62.3565 38.4339 63.171 39.3438 63.4743L39.6601 62.5257C39.2018 62.3729 38.9006 61.9375 38.7146 61.3626C38.5326 60.8001 38.502 60.2213 38.502 60H37.502ZM39.3438 63.4743C40.108 63.729 40.8444 63.8944 41.5479 63.7381C42.2791 63.5756 42.8752 63.0916 43.418 62.2773L42.5859 61.7227C42.1287 62.4084 41.7248 62.6744 41.331 62.7619C40.9095 62.8556 40.396 62.771 39.6601 62.5257L39.3438 63.4743ZM43.4589 62.2031L45.4589 57.7031L44.545 57.2969L42.545 61.7969L43.4589 62.2031Z" fill="#C09A5D"/>
<path d="M28.502 51L31.002 55.5" stroke="#C09A5D" stroke-linejoin="round"/>
<path d="M54.002 64.5V70.2245H1.00195V19.9286H19.3897V1H54.002V36.2437" stroke="#C09A5D"/>
<path d="M19.3887 1L1.00092 19.9286" stroke="#C09A5D"/>
<path d="M28.502 51L58.002 34L60.502 38L42.502 49" stroke="#C09A5D"/>
<path d="M35.002 53L31.002 55.5L25.002 56L29.002 50.5" stroke="#C09A5D" stroke-linejoin="round"/>
<path d="M29.5002 44L29.252 43.5659C29.2404 43.5726 29.229 43.5797 29.218 43.5873L29.5002 44ZM26.502 47.5L26.0168 47.6208L26.502 47.5ZM48.1336 39.0177C47.689 38.8964 47.1305 38.7137 46.4908 38.5083C45.8574 38.3051 45.1548 38.0831 44.4442 37.8922C43.7346 37.7015 43.006 37.5388 42.3192 37.4567C41.6376 37.3752 40.9648 37.369 40.3808 37.515L40.6233 38.4851C41.0392 38.3811 41.5748 38.3749 42.2005 38.4496C42.821 38.5238 43.4986 38.6736 44.1848 38.8579C44.8701 39.042 45.5528 39.2575 46.1851 39.4605C46.811 39.6614 47.3984 39.8537 47.8705 39.9824L48.1336 39.0177ZM40.3808 37.515C39.8218 37.6547 39.0594 37.9903 38.2059 38.4208C37.3419 38.8566 36.3478 39.4087 35.3133 40.0041C34.2782 40.5999 33.1968 41.2423 32.1582 41.8592C31.1181 42.4769 30.1221 43.0684 29.252 43.5659L29.7484 44.4341C30.6271 43.9316 31.6307 43.3356 32.6689 42.7189C33.7086 42.1014 34.784 41.4626 35.8122 40.8708C36.8409 40.2787 37.8165 39.7372 38.6563 39.3136C39.5066 38.8847 40.1822 38.5954 40.6233 38.4851L40.3808 37.515ZM29.218 43.5873C28.8544 43.8358 28.4713 44.0618 28.0728 44.3094C27.685 44.5503 27.2883 44.8086 26.949 45.0992C26.6093 45.3902 26.3014 45.735 26.1167 46.1601C25.9272 46.5964 25.8828 47.0827 26.0168 47.6208L26.9872 47.3792C26.9033 47.0423 26.9369 46.782 27.034 46.5585C27.1359 46.3237 27.3231 46.0955 27.5996 45.8587C27.8766 45.6214 28.2172 45.397 28.6005 45.1588C28.9731 44.9273 29.3948 44.6778 29.7824 44.4127L29.218 43.5873ZM26.0168 47.6208C26.167 48.2238 26.4757 48.6952 26.9083 49.0396C27.3337 49.3783 27.8546 49.5751 28.4082 49.6789C29.5045 49.8845 30.8312 49.7437 32.0981 49.4903L31.9019 48.5097C30.6689 48.7563 29.4957 48.8655 28.5925 48.6961C28.1464 48.6124 27.7926 48.4654 27.5311 48.2573C27.2767 48.0548 27.0861 47.7762 26.9872 47.3792L26.0168 47.6208Z" fill="#C09A5D"/>
<path d="M11.3245 57.762L11.5307 58.2175L11.3245 57.762ZM14.7116 53.8204L15.1808 53.6476L14.7116 53.8204ZM10.3568 54.2584L10.6923 54.6292L10.3568 54.2584ZM15.002 58.5L15.0564 58.997C15.1768 58.9838 15.2884 58.9274 15.3703 58.8381L15.002 58.5ZM16.1632 58.6378L16.6009 58.396L16.1632 58.6378ZM17.131 59.9516L17.3371 59.4961C17.2724 59.4667 17.2021 59.4516 17.131 59.4516V59.9516ZM18.5826 59.0758L19.0518 59.2486L18.5826 59.0758ZM6.05198 59.5733C6.81311 59.4967 7.92593 59.2724 8.9608 59.0156C9.98891 58.7605 10.9958 58.4596 11.5307 58.2175L11.1184 57.3064C10.674 57.5076 9.74541 57.7906 8.71995 58.045C7.70125 58.2978 6.64241 58.5088 5.95192 58.5783L6.05198 59.5733ZM11.5307 58.2175C12.0584 57.9787 13.0971 57.3634 13.9386 56.5931C14.3594 56.2079 14.7568 55.7607 15.0091 55.2785C15.2632 54.7926 15.3926 54.2228 15.1808 53.6476L14.2424 53.9932C14.324 54.2146 14.2977 54.481 14.1229 54.815C13.9463 55.1528 13.6417 55.5092 13.2634 55.8555C12.5066 56.5483 11.5585 57.1073 11.1184 57.3064L11.5307 58.2175ZM15.1808 53.6476C14.8186 52.6641 13.798 52.4157 12.8748 52.5247C11.9268 52.6366 10.8645 53.1245 10.0213 53.8877L10.6923 54.6292C11.3974 53.991 12.2706 53.603 12.992 53.5178C13.7381 53.4297 14.1208 53.663 14.2424 53.9932L15.1808 53.6476ZM10.0213 53.8877C8.95391 54.8538 8.30393 56.2798 8.10834 57.578C8.01014 58.2298 8.02212 58.8766 8.17277 59.438C8.32332 59.9991 8.62439 60.5122 9.13074 60.8177L9.64736 59.9615C9.4279 59.829 9.2451 59.5757 9.1386 59.1788C9.03219 58.7823 9.01393 58.2795 9.09718 57.727C9.26449 56.6165 9.82419 55.4149 10.6923 54.6292L10.0213 53.8877ZM9.13074 60.8177C9.93211 61.3012 10.8811 61.554 11.725 61.4903C12.5741 61.4263 13.3978 61.0243 13.7292 60.1244L12.7908 59.7788C12.6384 60.1927 12.2523 60.4477 11.6498 60.4931C11.0421 60.539 10.2976 60.3538 9.64736 59.9615L9.13074 60.8177ZM13.7292 60.1244C13.92 59.6065 14.2561 59.3288 14.5465 59.175C14.6941 59.0967 14.8298 59.051 14.9266 59.0252C14.9746 59.0124 15.012 59.0048 15.0352 59.0006C15.0467 58.9986 15.0545 58.9974 15.0583 58.9969C15.0601 58.9966 15.0609 58.9965 15.0606 58.9965C15.0605 58.9966 15.0601 58.9966 15.0594 58.9967C15.059 58.9967 15.0586 58.9968 15.0581 58.9968C15.0579 58.9969 15.0576 58.9969 15.0573 58.9969C15.0572 58.9969 15.0569 58.997 15.0569 58.997C15.0566 58.997 15.0564 58.997 15.002 58.5C14.9475 58.003 14.9473 58.003 14.947 58.003C14.9469 58.003 14.9467 58.0031 14.9465 58.0031C14.9461 58.0031 14.9457 58.0032 14.9453 58.0032C14.9445 58.0033 14.9437 58.0034 14.9427 58.0035C14.9408 58.0037 14.9386 58.004 14.936 58.0043C14.9309 58.005 14.9246 58.0058 14.9172 58.0069C14.9022 58.009 14.8826 58.0121 14.8587 58.0163C14.8112 58.0249 14.7465 58.0383 14.6691 58.0589C14.5148 58.1 14.3057 58.1708 14.0784 58.2913C13.6188 58.5348 13.0839 58.9829 12.7908 59.7788L13.7292 60.1244ZM15.002 58.5C15.3703 58.8381 15.3702 58.8383 15.37 58.8384C15.37 58.8385 15.3698 58.8386 15.3697 58.8387C15.3695 58.8389 15.3694 58.8391 15.3692 58.8393C15.3688 58.8397 15.3685 58.84 15.3683 58.8403C15.3677 58.8409 15.3673 58.8413 15.3671 58.8416C15.3665 58.8422 15.3665 58.8421 15.3671 58.8416C15.3682 58.8405 15.3713 58.8373 15.3762 58.8327C15.3861 58.8233 15.4023 58.8087 15.4231 58.7924C15.4688 58.7568 15.5167 58.7287 15.5563 58.7157C15.5741 58.7099 15.5839 58.7093 15.587 58.7093C15.5885 58.7092 15.5876 58.7092 15.5879 58.7093C15.5884 58.7095 15.6011 58.7145 15.6242 58.7372C15.6482 58.7608 15.6839 58.8041 15.7256 58.8795L16.6009 58.396C16.4425 58.1093 16.2338 57.8934 15.9674 57.7841C15.6986 57.6739 15.4419 57.7011 15.246 57.7651C15.0558 57.8272 14.9041 57.9289 14.8076 58.0043C14.7573 58.0436 14.7168 58.0798 14.6879 58.1073C14.6733 58.1211 14.6613 58.133 14.6523 58.1423C14.6477 58.1469 14.6439 58.1509 14.6408 58.1542C14.6392 58.1559 14.6378 58.1573 14.6366 58.1586C14.636 58.1593 14.6355 58.1599 14.635 58.1604C14.6347 58.1607 14.6345 58.1609 14.6342 58.1612C14.6341 58.1613 14.634 58.1615 14.6339 58.1616C14.6337 58.1617 14.6336 58.1619 15.002 58.5ZM15.7256 58.8795C15.9003 59.1958 16.086 59.569 16.2494 59.8258C16.3345 59.9596 16.4375 60.1023 16.5626 60.2155C16.6894 60.3303 16.8806 60.4516 17.131 60.4516V59.4516C17.2201 59.4516 17.2581 59.4962 17.2336 59.4741C17.2075 59.4505 17.1613 59.3961 17.0932 59.2891C16.9501 59.0642 16.8133 58.7804 16.6009 58.396L15.7256 58.8795ZM16.9248 60.4071C17.1232 60.4969 17.3421 60.5002 17.5211 60.4765C17.7107 60.4514 17.9095 60.389 18.0989 60.2943C18.476 60.1055 18.8622 59.7633 19.0518 59.2486L18.1134 58.903C18.0293 59.1314 17.8509 59.3001 17.6514 59.4C17.5523 59.4495 17.4598 59.4759 17.3897 59.4852C17.3091 59.4959 17.3001 59.4793 17.3371 59.4961L16.9248 60.4071ZM19.0518 59.2486C19.2274 58.7717 19.6515 58.4457 20.1323 58.2113C20.3669 58.097 20.5961 58.0136 20.7883 57.9467C20.8789 57.9151 20.9752 57.8825 21.0483 57.8549C21.0858 57.8407 21.1283 57.8238 21.1687 57.8045C21.2 57.7896 21.2711 57.7546 21.3375 57.6946L20.6664 56.9532C20.7126 56.9114 20.751 56.8958 20.7383 56.9019C20.7348 56.9036 20.7222 56.9091 20.6948 56.9195C20.6381 56.9409 20.5655 56.9654 20.4595 57.0023C20.2586 57.0722 19.9838 57.1713 19.6942 57.3124C19.1266 57.5891 18.4216 58.0661 18.1134 58.903L19.0518 59.2486Z" fill="#C09A5D"/>
</svg>
