<svg width="253" height="154" viewBox="0 0 253 154" fill="none" xmlns="http://www.w3.org/2000/svg">
<rect x="0.5" y="0.5" width="143" height="96" rx="8.5" stroke="white"/>
<rect x="5.5" y="5.5" width="133" height="81" rx="1.5" stroke="white"/>
<rect x="60.5" y="96.5" width="23" height="23" stroke="white"/>
<rect x="49.5" y="119.5" width="45" height="3" stroke="white"/>
<path d="M157.5 122.5C149 122 144.5 130 144.5 136.5C144.5 143 150 148 157 148C164 148 168 143 170.5 137.5L188.636 102M188.636 102L194 91.5C195.333 86.8334 195.6 76.6 186 73C176.4 69.4 169.667 73.8334 167.5 76.5L138.5 130C135.5 136 136.222 140.5 139 145.5C141.5 150 146.5 153 154.5 153H234L251.5 102H188.636Z" stroke="white"/>
<path d="M138 131C140.5 125.661 145 119.5 156 122.128C167.332 124.836 168.333 135.22 168.5 141" stroke="white"/>
<path d="M32 24H112" stroke="white"/>
<path d="M32 69H112" stroke="white"/>
<path d="M96 74L96 18" stroke="white"/>
<path d="M43 74L43 18" stroke="white"/>
<path d="M70 74L70 18" stroke="white"/>
<path d="M43 69V40.6L69.5 25L96 40.6V69" stroke="white"/>
<path d="M43 40.5H95.5" stroke="white"/>
<path d="M105 25V68" stroke="white" stroke-dasharray="1 1"/>
<path d="M195 109H221" stroke="white"/>
<path d="M191 117H214" stroke="white"/>
<path d="M187 125H210" stroke="white"/>
<path d="M189 121H212" stroke="white"/>
<path d="M193 113H216" stroke="white"/>
<path d="M210 141H227" stroke="white"/>
<path d="M207 147H224" stroke="white"/>
<path d="M209 144H226" stroke="white"/>
<path d="M212 138H229" stroke="white"/>
<path d="M224.5 114H236.5L230 129.5" stroke="white"/>
<path d="M228 112L223.5 114L227 116.5" stroke="white"/>
<path d="M233.5 127L230 129.5L228.5 126.5" stroke="white"/>
<path d="M206.5 137H194L190.5 144.5H175L181.5 132H173" stroke="white"/>
<path d="M203 134.5L207 137L202 139" stroke="white"/>
</svg>
