<svg width="411" height="442" viewBox="0 0 411 442" fill="none" xmlns="http://www.w3.org/2000/svg">
<path fill-rule="evenodd" clip-rule="evenodd" d="M303.564 228.07L329.756 264.16L329.354 265.176L302.756 228.66L303.564 228.07Z" fill="white"/>
<path fill-rule="evenodd" clip-rule="evenodd" d="M366.117 256.684L385.756 217.158L386.002 218.927L366.737 257.684H334.256V256.684H366.117Z" fill="white"/>
<path fill-rule="evenodd" clip-rule="evenodd" d="M323.073 314.406L367.756 318.821L387.89 348.292L387.064 348.856L367.193 319.77L322.975 315.401L323.073 314.406Z" fill="white"/>
<path fill-rule="evenodd" clip-rule="evenodd" d="M304.631 375.915L330.398 332.146L331.257 332.659L305.13 377.029L267.756 369.748L267.944 368.766L304.631 375.915Z" fill="white"/>
<path fill-rule="evenodd" clip-rule="evenodd" d="M267.395 4.67227L140.336 27.76L140.256 26.6602L267.756 3.66016L267.395 4.67227Z" fill="white"/>
<path fill-rule="evenodd" clip-rule="evenodd" d="M332.091 188.007C343.915 167.864 350.759 140.29 349.756 110.065C348.752 79.8405 340.095 52.7815 326.961 33.467C313.819 14.1403 296.294 2.68771 277.539 3.31029C258.783 3.93288 242.056 16.5224 230.225 36.6781C218.401 56.821 211.557 84.3946 212.56 114.619C213.563 144.844 222.221 171.903 235.355 191.218C248.497 210.544 266.022 221.997 284.777 221.374C303.533 220.752 320.259 208.162 332.091 188.007ZM284.81 222.374C323.248 221.098 352.772 170.801 350.755 110.032C348.738 49.2634 315.943 1.03492 277.505 2.31084C239.068 3.58676 209.543 53.8839 211.561 114.653C213.578 175.421 246.373 223.65 284.81 222.374Z" fill="white"/>
<path fill-rule="evenodd" clip-rule="evenodd" d="M375.935 368.16C388.092 351.13 396.998 326.763 399.708 299.096C402.417 271.429 398.408 245.798 389.785 226.733C381.15 207.64 367.995 195.324 352.494 193.806C336.992 192.287 321.698 201.817 309.523 218.873C297.366 235.903 288.46 260.269 285.75 287.936C283.041 315.603 287.05 341.234 295.673 360.3C304.308 379.393 317.463 391.709 332.964 393.227C348.466 394.745 363.76 385.215 375.935 368.16ZM332.867 394.222C364.885 397.358 395.256 354.812 400.703 299.194C406.15 243.575 384.61 195.946 352.591 192.81C320.573 189.675 290.202 232.22 284.755 287.839C279.308 343.457 300.849 391.087 332.867 394.222Z" fill="white"/>
<path fill-rule="evenodd" clip-rule="evenodd" d="M362.734 327.881C368.264 320.075 372.341 308.873 373.589 296.128C374.838 283.382 373.011 271.603 369.1 262.871C365.176 254.11 359.261 248.615 352.415 247.944C345.57 247.274 338.701 251.517 333.152 259.351C327.621 267.157 323.544 278.359 322.296 291.104C321.048 303.85 322.874 315.629 326.785 324.361C330.71 333.122 336.625 338.617 343.47 339.288C350.315 339.958 357.184 335.715 362.734 327.881ZM343.373 340.283C358.087 341.724 372.061 321.999 374.585 296.225C377.109 270.452 367.227 248.39 352.513 246.949C337.799 245.508 323.825 265.233 321.301 291.007C318.777 316.78 328.659 338.842 343.373 340.283Z" fill="white"/>
<path fill-rule="evenodd" clip-rule="evenodd" d="M229.762 348.158C237.525 339.101 243.089 326.031 244.552 311.087C246.016 296.143 243.093 282.241 237.235 271.85C231.376 261.456 222.637 254.654 212.46 253.658C202.282 252.661 192.39 257.638 184.625 266.698C176.863 275.755 171.299 288.826 169.835 303.769C168.372 318.713 171.294 332.615 177.152 343.006C183.012 353.4 191.75 360.202 201.928 361.199C212.105 362.195 221.998 357.218 229.762 348.158ZM201.83 362.194C223.013 364.268 242.586 341.43 245.548 311.184C248.51 280.938 233.739 254.737 212.557 252.662C191.375 250.588 171.802 273.426 168.84 303.672C165.878 333.918 180.648 360.119 201.83 362.194Z" fill="white"/>
<path fill-rule="evenodd" clip-rule="evenodd" d="M218.877 274.286C214.473 265.619 207.53 259.602 198.74 255.94L199.125 255.017C208.114 258.762 215.248 264.935 219.768 273.833C224.285 282.724 226.175 294.296 224.753 308.818L224.751 308.832L224.749 308.847C220.842 333.517 207.391 348.472 188.724 356.686L187.757 356.16C206.123 348.078 219.904 333.015 223.759 308.705C225.165 294.322 223.283 282.958 218.877 274.286Z" fill="white"/>
<path fill-rule="evenodd" clip-rule="evenodd" d="M351.953 293.994C353.767 275.472 348.677 259.083 340.056 251.672L340.708 250.913C349.679 258.625 354.778 275.409 352.948 294.092C351.113 312.826 342.815 328.337 332.477 334.124L331.989 333.252C341.921 327.691 350.134 312.569 351.953 293.994Z" fill="white"/>
<path fill-rule="evenodd" clip-rule="evenodd" d="M198.257 17.159C167.704 28.0339 145.831 68.9681 147.417 116.759C148.392 146.113 158.198 172.877 172.758 190.659L171.984 191.293C157.266 173.317 147.398 146.333 146.418 116.792C144.824 68.7754 165.758 27.1592 198.758 16.1596L198.257 17.159Z" fill="white"/>
<path fill-rule="evenodd" clip-rule="evenodd" d="M285.242 221.661C281.629 227.569 276.913 237.262 274.177 244.541L273.241 244.189C275.998 236.855 280.608 227.625 284.257 221.66L285.242 221.661ZM274.916 353.073C280.755 367.25 290.224 380.339 299.757 386.66L298.624 387.016C288.861 380.543 279.871 367.73 273.992 353.454L274.916 353.073Z" fill="white"/>
<path fill-rule="evenodd" clip-rule="evenodd" d="M80.6137 188.383L196.781 191.159L196.257 192.159L80.6133 189.292L80.6137 188.383Z" fill="white"/>
<path fill-rule="evenodd" clip-rule="evenodd" d="M314.025 149.393C320.107 139.233 323.648 125.297 323.14 110C322.632 94.7024 318.176 81.0325 311.433 71.2977C304.684 61.5527 295.736 55.8607 286.225 56.1765C276.713 56.4922 268.163 62.765 262.074 72.9361C255.992 83.0966 252.452 97.032 252.959 112.329C253.467 127.627 257.924 141.297 264.667 151.031C271.416 160.776 280.363 166.468 289.875 166.153C299.387 165.837 307.937 159.564 314.025 149.393ZM289.908 167.152C309.84 166.491 325.166 140.888 324.14 109.967C323.113 79.0455 306.123 54.5154 286.191 55.177C266.26 55.8386 250.934 81.4415 251.96 112.363C252.986 143.284 269.977 167.814 289.908 167.152Z" fill="white"/>
<path fill-rule="evenodd" clip-rule="evenodd" d="M293.941 112.301C293.189 89.6432 282.809 70.7632 269.043 63.8404L269.492 62.947C283.697 70.0901 294.181 89.3879 294.941 112.268C295.664 134.066 287.367 153.194 274.743 161.937L274.174 161.114C286.433 152.624 294.657 133.878 293.941 112.301Z" fill="white"/>
<path fill-rule="evenodd" clip-rule="evenodd" d="M247.481 15.5156L269.607 63.6153L268.698 64.0332L246.572 15.9335L247.481 15.5156Z" fill="white"/>
<path fill-rule="evenodd" clip-rule="evenodd" d="M341.632 61.3132L317.583 82.4771L316.922 81.7263L340.972 60.5625L341.632 61.3132Z" fill="white"/>
<path fill-rule="evenodd" clip-rule="evenodd" d="M322.551 201.546L308.121 158.257L308.758 157.158L323.5 201.23L322.551 201.546Z" fill="white"/>
<path fill-rule="evenodd" clip-rule="evenodd" d="M224.256 171.159L257.255 138.506L257.962 139.213L224.756 172.159L224.256 171.159Z" fill="white"/>
<path fill-rule="evenodd" clip-rule="evenodd" d="M254.654 90.2654L317.184 81.6074L317.756 82.6602L254.791 91.2559L254.654 90.2654Z" fill="white"/>
<path fill-rule="evenodd" clip-rule="evenodd" d="M266.258 153.658L307.758 157.658L307.586 158.596L267.183 154.748L266.258 153.658Z" fill="white"/>
<path fill-rule="evenodd" clip-rule="evenodd" d="M107.537 171.066H224.9V172.066H107.537V171.066Z" fill="white"/>
<path fill-rule="evenodd" clip-rule="evenodd" d="M128.626 33.5083L246.951 15.2305L247.104 16.2187L128.258 34.6602L128.626 33.5083Z" fill="white"/>
<path fill-rule="evenodd" clip-rule="evenodd" d="M263.256 379.158L329.256 392.658L329.56 393.639L262.32 379.847L263.256 379.158Z" fill="white"/>
<path fill-rule="evenodd" clip-rule="evenodd" d="M246.226 402.19C263.819 382.601 276.894 354.012 281.215 321.057C285.536 288.102 280.274 257.108 268.326 233.646C256.374 210.179 237.793 194.337 215.48 191.411C193.168 188.486 171.13 199.001 153.533 218.594C135.939 238.183 122.865 266.772 118.544 299.727C114.223 332.682 119.484 363.676 131.433 387.138C143.384 410.605 161.966 426.447 184.278 429.373C206.591 432.298 228.629 421.783 246.226 402.19ZM184.148 430.364C229.616 436.326 273.518 387.446 282.206 321.187C290.894 254.928 261.078 196.382 215.61 190.42C170.142 184.458 126.24 233.338 117.552 299.597C108.864 365.856 138.68 424.402 184.148 430.364Z" fill="white"/>
<path fill-rule="evenodd" clip-rule="evenodd" d="M68.2188 402.451L179.756 428.658V429.658L68.219 403.658L68.2188 402.451Z" fill="white"/>
<path fill-rule="evenodd" clip-rule="evenodd" d="M206.73 253.16L204.756 190.192L205.782 190.16L207.756 253.128L206.73 253.16Z" fill="white"/>
<path fill-rule="evenodd" clip-rule="evenodd" d="M245.635 300.931L171.375 292.166L171.258 293.159L245.652 301.94L283.66 296.158L283.509 295.169L245.635 300.931Z" fill="white"/>
<path fill-rule="evenodd" clip-rule="evenodd" d="M190.757 355.158L210.009 360.807V427.658H209.009V361.548L190.123 355.785L190.757 355.158Z" fill="white"/>
<path fill-rule="evenodd" clip-rule="evenodd" d="M0.673828 304.815L0.837876 303.828L116.449 323.054L169.021 314.188L169.188 315.174L116.45 324.068L0.673828 304.815Z" fill="white"/>
<path fill-rule="evenodd" clip-rule="evenodd" d="M328.257 194.193L348.757 192.66L348.802 193.659L327.857 195.155L328.257 194.193Z" fill="white"/>
<path fill-rule="evenodd" clip-rule="evenodd" d="M223.884 17.9642C229.853 12.5991 235.856 9.25911 241.185 8.49414L241.327 9.48399C236.274 10.2093 230.449 13.408 224.552 18.7079C218.664 24.0001 212.743 31.3531 207.498 40.3144C197.009 58.2369 189.249 82.5502 189.84 109.573C190.881 157.144 206.853 182.382 212.734 190.513L211.924 191.099C205.947 182.836 189.886 157.404 188.84 109.595C188.245 82.3716 196.061 57.8775 206.635 39.8093C211.923 30.7752 217.906 23.337 223.884 17.9642Z" fill="white"/>
<path fill-rule="evenodd" clip-rule="evenodd" d="M107.113 110.333C108.631 62.0429 135.611 29.6959 161.281 22.9375L161.536 23.9045C136.41 30.5195 109.621 62.3826 108.113 110.364C107.368 134.059 112.209 151.44 118.153 164.094C123.225 174.89 129.101 182.25 133.045 187.191C133.726 188.045 134.335 189.162 134.887 189.876L134.096 190.487C133.551 189.783 132.933 189.008 132.256 188.16C128.312 183.221 122.374 175.43 117.248 164.519C111.238 151.726 106.364 134.188 107.113 110.333Z" fill="white"/>
<path fill-rule="evenodd" clip-rule="evenodd" d="M109.425 54.7524C118.664 40.3108 129.602 30.0471 140.258 26.6582L140.758 27.6582C130.405 30.9506 119.436 40.9607 110.267 55.2913C101.108 69.6079 94.3862 88.2661 93.6891 108.944C92.1934 153.318 112.125 180.164 121.306 189.494L120.593 190.195C111.268 180.719 91.1826 153.62 92.6897 108.91C93.3932 88.039 100.177 69.208 109.425 54.7524Z" fill="white"/>
<path fill-rule="evenodd" clip-rule="evenodd" d="M123.853 219.508C139.896 199.692 160.342 189.06 179.662 190.925V191.654C160.768 189.831 140.528 200.5 124.63 220.138C108.736 239.768 97.1929 269.16 95.6827 306.314C92.7918 377.44 132.297 417.95 170.977 426.005L170.773 426.984C131.547 418.815 91.7757 377.815 94.6835 306.273C96.201 268.938 107.804 239.331 123.853 219.508Z" fill="white"/>
<path fill-rule="evenodd" clip-rule="evenodd" d="M51.7685 287.512C62.6039 214.019 107.845 188.224 140.208 189.715V190.591C108.458 189.128 63.5339 214.568 52.7578 287.658C43.0963 353.189 81.8757 408.354 127.768 416.422V417.512C81.2218 409.329 42.0471 353.449 51.7685 287.512Z" fill="white"/>
<path fill-rule="evenodd" clip-rule="evenodd" d="M15.3211 285.932C22.4986 219.301 64.0211 187.456 102.442 188.955V189.853C64.6756 188.379 23.4515 219.792 16.3154 286.039C12.9648 317.143 19.2962 345.829 30.6384 367.189C41.992 388.57 58.6316 401.967 75.2559 404.158V405.158C58.2153 403.275 41.1827 389.178 29.7552 367.658C18.3163 346.116 11.9498 317.229 15.3211 285.932Z" fill="white"/>
<path fill-rule="evenodd" clip-rule="evenodd" d="M30.2568 215.159C46.8271 196.83 65.2568 187.659 81.9989 188.408V189.331C66.2568 188.659 47.7033 197.467 31.2565 215.659C14.8295 233.829 1.87143 261.344 1.03616 297.222C-0.357309 357.076 38.7854 396.168 72.7158 403.534L72.5037 404.511C38.0787 397.038 -1.36756 357.505 0.0364265 297.199C0.877212 261.084 13.6668 233.509 30.2568 215.159Z" fill="white"/>
</svg>
