<svg width="22" height="19" viewBox="0 0 22 19" fill="none" xmlns="http://www.w3.org/2000/svg">
<rect width="22" height="19" fill="white"/>
<path fill-rule="evenodd" clip-rule="evenodd" d="M10.75 0C11.1642 0 11.5 0.335786 11.5 0.75V10.2955L14.6925 6.74828C14.9696 6.4404 15.4438 6.41544 15.7517 6.69254C16.0596 6.96963 16.0846 7.44385 15.8075 7.75173L11.3075 12.7517C11.2859 12.7757 11.263 12.7981 11.2389 12.8188C11.1128 12.9273 10.9502 12.9945 10.772 12.9997C10.7684 12.9998 10.7647 12.9999 10.7611 12.9999C10.7574 13 10.7537 13 10.75 13C10.7426 13 10.7353 12.9999 10.728 12.9997C10.5403 12.9943 10.37 12.92 10.2413 12.8012C10.2235 12.7847 10.2065 12.7673 10.1903 12.7492L5.69254 7.75173C5.41544 7.44385 5.4404 6.96963 5.74828 6.69254C6.05617 6.41544 6.53038 6.4404 6.80748 6.74828L10 10.2955V0.75C10 0.335786 10.3358 0 10.75 0ZM1.5 10.75C1.5 10.3358 1.16421 10 0.75 10C0.335786 10 0 10.3358 0 10.75V17.25C0 17.6642 0.335786 18 0.75 18H20.75C21.1642 18 21.5 17.6642 21.5 17.25V10.75C21.5 10.3358 21.1642 10 20.75 10C20.3358 10 20 10.3358 20 10.75V16.5H1.5V10.75Z" fill="#232323"/>
</svg>
