<svg width="81" height="76" viewBox="0 0 81 76" fill="none" xmlns="http://www.w3.org/2000/svg">
<mask id="path-1-inside-1_235_261" fill="white">
<path d="M13.6989 16.1228C19.0932 8.97866 26.9557 4.10054 35.7523 2.44026C44.5489 0.779978 53.6485 2.45667 61.2757 7.14315C68.9029 11.8297 74.5104 19.1897 77.0041 27.7873C79.4978 36.3849 78.6988 45.6032 74.763 53.6435C70.8272 61.6837 64.0369 67.9692 55.7171 71.2735C47.3974 74.5778 38.1449 74.6638 29.7652 71.5147C21.3854 68.3657 14.4795 62.2075 10.3949 54.2417C6.31036 46.276 5.34015 37.0742 7.67361 28.4317L8.54094 28.6659C6.26571 37.0927 7.21171 46.0648 11.1944 53.8318C15.177 61.5988 21.9106 67.6033 30.0812 70.6738C38.2518 73.7442 47.2734 73.6604 55.3855 70.4386C63.4977 67.2167 70.1185 61.0881 73.9561 53.2485C77.7936 45.4088 78.5727 36.4206 76.1412 28.0376C73.7098 19.6545 68.2422 12.4781 60.8054 7.9086C53.3685 3.33906 44.496 1.70422 35.9189 3.32307C27.3418 4.94191 19.6755 9.6983 14.4159 16.6642L13.6989 16.1228Z"/>
</mask>
<path d="M13.6989 16.1228C19.0932 8.97866 26.9557 4.10054 35.7523 2.44026C44.5489 0.779978 53.6485 2.45667 61.2757 7.14315C68.9029 11.8297 74.5104 19.1897 77.0041 27.7873C79.4978 36.3849 78.6988 45.6032 74.763 53.6435C70.8272 61.6837 64.0369 67.9692 55.7171 71.2735C47.3974 74.5778 38.1449 74.6638 29.7652 71.5147C21.3854 68.3657 14.4795 62.2075 10.3949 54.2417C6.31036 46.276 5.34015 37.0742 7.67361 28.4317L8.54094 28.6659C6.26571 37.0927 7.21171 46.0648 11.1944 53.8318C15.177 61.5988 21.9106 67.6033 30.0812 70.6738C38.2518 73.7442 47.2734 73.6604 55.3855 70.4386C63.4977 67.2167 70.1185 61.0881 73.9561 53.2485C77.7936 45.4088 78.5727 36.4206 76.1412 28.0376C73.7098 19.6545 68.2422 12.4781 60.8054 7.9086C53.3685 3.33906 44.496 1.70422 35.9189 3.32307C27.3418 4.94191 19.6755 9.6983 14.4159 16.6642L13.6989 16.1228Z" stroke="#C09A5D" stroke-width="2" mask="url(#path-1-inside-1_235_261)"/>
<path d="M12.8906 36.7041L8.02625 27.9669L1.00061 35.0832" stroke="#C09A5D"/>
<circle cx="42.2422" cy="37.4648" r="3" fill="#C09A5D"/>
<circle cx="74.2422" cy="37.4648" r="1" fill="#C09A5D"/>
<circle cx="42.2422" cy="69.4648" r="1" fill="#C09A5D"/>
<circle cx="58.2422" cy="64.4648" r="1" fill="#C09A5D"/>
<circle cx="24.2422" cy="64.4648" r="1" fill="#C09A5D"/>
<circle cx="70.2422" cy="52.4648" r="1" fill="#C09A5D"/>
<circle cx="14.2422" cy="52.4648" r="1" fill="#C09A5D"/>
<circle cx="58.2422" cy="9.46484" r="1" fill="#C09A5D"/>
<circle cx="70.2422" cy="22.4648" r="1" fill="#C09A5D"/>
<path fill-rule="evenodd" clip-rule="evenodd" d="M41.2422 18.9648L17.7227 18.9648L16.7227 17.9648L41.2422 17.9648V18.9648Z" fill="#C09A5D"/>
<path fill-rule="evenodd" clip-rule="evenodd" d="M41.2422 12.4648L17.2227 12.4648L16.2227 13.4648L41.2422 13.4648V12.4648Z" fill="#C09A5D"/>
<path fill-rule="evenodd" clip-rule="evenodd" d="M41.2422 30.9648L32.8105 30.9648L31.7227 29.9648L41.2422 29.9648V30.9648Z" fill="#C09A5D"/>
<path fill-rule="evenodd" clip-rule="evenodd" d="M41.2422 24.9648L25.8105 24.9648L24.7227 23.9648L41.2422 23.9648V24.9648Z" fill="#C09A5D"/>
<path fill-rule="evenodd" clip-rule="evenodd" d="M41.2422 6.46484L25.2227 6.46484L24.2227 7.46484L41.2422 7.46484V6.46484Z" fill="#C09A5D"/>
<path d="M41.2422 4.96484H43.2422" stroke="#C09A5D"/>
<path d="M41.2422 48.9996V4.46484" stroke="#C09A5D"/>
<path d="M43.2422 48.9996V4.46484" stroke="#C09A5D"/>
</svg>
